<svg width="117" height="31" viewBox="0 0 117 31" fill="none" xmlns="http://www.w3.org/2000/svg">
<g clip-path="url(#clip0_0_256)">
<path d="M3.57388 31V17.8616H0V13.1311H3.57388V9.0907C3.57388 5.9157 5.68498 3 10.5494 3C12.5189 3 13.9753 3.18354 13.9753 3.18354L13.8606 7.60099C13.8606 7.60099 12.3753 7.58693 10.7545 7.58693C9.00031 7.58693 8.71926 8.37275 8.71926 9.67702V13.1311H14L13.7702 17.8616H8.71926V31H3.57388Z" fill="#B6CCDA"/>
</g>
<path d="M94.8135 8.39653C96.2233 8.39653 97.3662 7.25366 97.3662 5.84387C97.3662 4.43407 96.2233 3.2912 94.8135 3.2912C93.4037 3.2912 92.2609 4.43407 92.2609 5.84387C92.2609 7.25366 93.4037 8.39653 94.8135 8.39653Z" fill="#B6CCDA"/>
<path d="M99.7765 10.3308V24.493H104.174V17.4895C104.174 15.6415 104.521 13.8518 106.813 13.8518C109.073 13.8518 109.101 15.9646 109.101 17.6061V24.4941H113.5V16.7276C113.5 12.9126 112.679 9.9808 108.22 9.9808C106.079 9.9808 104.644 11.1556 104.057 12.2675H103.998V10.3308H99.7765ZM92.6108 10.3308H97.015V24.493H92.6108V10.3308Z" fill="#B6CCDA"/>
<path d="M68.5835 8.75985C67.6093 9.19152 66.5628 9.48319 65.4626 9.61502C66.5978 8.93578 67.4471 7.86673 67.852 6.60735C66.7855 7.24084 65.6182 7.68675 64.401 7.92569C63.5824 7.05169 62.4982 6.4724 61.3167 6.27774C60.1352 6.08308 58.9224 6.28394 57.8667 6.84915C56.8111 7.41435 55.9715 8.31227 55.4785 9.40351C54.9854 10.4947 54.8664 11.7182 55.14 12.884C52.9789 12.7755 50.8649 12.2138 48.935 11.2354C47.0051 10.257 45.3025 8.88371 43.9376 7.20469C43.471 8.00969 43.2026 8.94302 43.2026 9.93702C43.2021 10.8318 43.4225 11.713 43.8442 12.5022C44.2659 13.2914 44.8758 13.9644 45.62 14.4614C44.757 14.4339 43.913 14.2007 43.1583 13.7812V13.8512C43.1582 15.1062 43.5923 16.3226 44.387 17.294C45.1817 18.2654 46.288 18.9319 47.5181 19.1805C46.7176 19.3972 45.8782 19.4291 45.0635 19.2739C45.4106 20.3537 46.0866 21.2981 46.9971 21.9746C47.9075 22.6511 49.0067 23.0261 50.1408 23.0469C48.2156 24.5582 45.838 25.378 43.3905 25.3744C42.9569 25.3745 42.5237 25.3491 42.0931 25.2985C44.5775 26.8959 47.4695 27.7436 50.4231 27.7404C60.4215 27.7404 65.8873 19.4594 65.8873 12.2774C65.8873 12.044 65.8815 11.8084 65.871 11.575C66.9341 10.8062 67.8519 9.85406 68.5811 8.76335L68.5835 8.75985Z" fill="#B6CCDA"/>
<defs>
<clipPath id="clip0_0_256">
<rect width="14" height="28" fill="white" transform="translate(0 3)"/>
</clipPath>
</defs>
</svg>
